<mxfile host="65bd71144e">
    <diagram id="fo-gDpiT8w4Ft_2qxTC5" name="Page-1">
        <mxGraphModel dx="1878" dy="705" grid="1" gridSize="10" guides="1" tooltips="1" connect="1" arrows="1" fold="1" page="1" pageScale="1" pageWidth="850" pageHeight="1100" math="0" shadow="0">
            <root>
                <mxCell id="0"/>
                <mxCell id="1" parent="0"/>
                <mxCell id="2" value="&lt;span style=&quot;color: rgb(51, 51, 51); font-family: georgia, times, &amp;quot;times new roman&amp;quot;, serif; font-size: 14px; font-style: normal; font-weight: 400; letter-spacing: normal; text-indent: 0px; text-transform: none; word-spacing: 0px; background-color: rgb(255, 255, 255); display: inline; float: none;&quot;&gt;Each of the programs in Figure 9-25 uses a recursive method. Try to determine the output in each case.&lt;/span&gt;&lt;br style=&quot;color: rgb(51, 51, 51); font-family: georgia, times, &amp;quot;times new roman&amp;quot;, serif; font-size: 14px; font-style: normal; font-weight: 400; letter-spacing: normal; text-indent: 0px; text-transform: none; word-spacing: 0px; background-color: rgb(255, 255, 255);&quot;&gt;&lt;br style=&quot;color: rgb(51, 51, 51); font-family: georgia, times, &amp;quot;times new roman&amp;quot;, serif; font-size: 14px; font-style: normal; font-weight: 400; letter-spacing: normal; text-indent: 0px; text-transform: none; word-spacing: 0px; background-color: rgb(255, 255, 255);&quot;&gt;&lt;img src=&quot;https://cnow.apps.ng.cengage.com/ilrn/books/fa1pl09h/ch09_01.png&quot; width=&quot;490&quot; class=&quot;mathMLFormula&quot; height=&quot;168&quot; style=&quot;color: rgb(51, 51, 51); font-family: georgia, times, &amp;quot;times new roman&amp;quot;, serif; font-size: 14px; font-style: normal; font-weight: 400; letter-spacing: normal; text-indent: 0px; text-transform: none; word-spacing: 0px; background-color: rgb(255, 255, 255); vertical-align: middle;&quot;&gt;" style="text;whiteSpace=wrap;html=1;" vertex="1" parent="1">
                    <mxGeometry x="-40" width="550" height="230" as="geometry"/>
                </mxCell>
                <mxCell id="5" value="" style="edgeStyle=none;html=1;" edge="1" parent="1" source="3" target="4">
                    <mxGeometry relative="1" as="geometry"/>
                </mxCell>
                <mxCell id="3" value="A)" style="text;html=1;align=center;verticalAlign=middle;resizable=0;points=[];autosize=1;strokeColor=none;fillColor=none;" vertex="1" parent="1">
                    <mxGeometry x="5" y="270" width="30" height="20" as="geometry"/>
                </mxCell>
                <mxCell id="4" value="output : 0" style="whiteSpace=wrap;html=1;" vertex="1" parent="1">
                    <mxGeometry x="70" y="250" width="120" height="60" as="geometry"/>
                </mxCell>
                <mxCell id="6" value="" style="edgeStyle=none;html=1;" edge="1" parent="1" source="7">
                    <mxGeometry relative="1" as="geometry">
                        <mxPoint x="70" y="340" as="targetPoint"/>
                    </mxGeometry>
                </mxCell>
                <mxCell id="9" value="" style="edgeStyle=none;html=1;" edge="1" parent="1" source="7" target="8">
                    <mxGeometry relative="1" as="geometry"/>
                </mxCell>
                <mxCell id="7" value="B)" style="text;html=1;align=center;verticalAlign=middle;resizable=0;points=[];autosize=1;strokeColor=none;fillColor=none;" vertex="1" parent="1">
                    <mxGeometry x="5" y="330" width="30" height="20" as="geometry"/>
                </mxCell>
                <mxCell id="8" value="output : 0" style="whiteSpace=wrap;html=1;" vertex="1" parent="1">
                    <mxGeometry x="70" y="310" width="120" height="60" as="geometry"/>
                </mxCell>
                <mxCell id="10" value="" style="edgeStyle=none;html=1;" edge="1" parent="1" source="12">
                    <mxGeometry relative="1" as="geometry">
                        <mxPoint x="70" y="400" as="targetPoint"/>
                    </mxGeometry>
                </mxCell>
                <mxCell id="11" value="" style="edgeStyle=none;html=1;" edge="1" parent="1" source="12" target="13">
                    <mxGeometry relative="1" as="geometry"/>
                </mxCell>
                <mxCell id="12" value="C)" style="text;html=1;align=center;verticalAlign=middle;resizable=0;points=[];autosize=1;strokeColor=none;fillColor=none;" vertex="1" parent="1">
                    <mxGeometry x="5" y="390" width="30" height="20" as="geometry"/>
                </mxCell>
                <mxCell id="13" value="output : 2" style="whiteSpace=wrap;html=1;" vertex="1" parent="1">
                    <mxGeometry x="70" y="370" width="120" height="60" as="geometry"/>
                </mxCell>
            </root>
        </mxGraphModel>
    </diagram>
</mxfile>